<?xml version="1.0" encoding="UTF-8" standalone="no"?>
<svg width="46px" height="37px" viewBox="0 0 46 37" version="1.1" xmlns="http://www.w3.org/2000/svg" xmlns:xlink="http://www.w3.org/1999/xlink" xmlns:sketch="http://www.bohemiancoding.com/sketch/ns">
    <!-- Generator: Sketch 3.5.2 (25235) - http://www.bohemiancoding.com/sketch -->
    <title>Slice 1</title>
    <desc>Created with Sketch.</desc>
    <defs>
        <path d="M11,10.2 C10.6,10.6 10.2,10.8 9.6,10.8 L1.6,10.8 L0.8,10.8 L0.8,25.4 L9.4,25.4 C9.8,25.4 10.2,25.6 10.4,25.8 C12.6,27.8 14.8,30 17,32.2 L20,35.2 L20,1.4 C19.8,1.6 19.8,1.6 19.6,1.8 C17,4.4 14,7.2 11,10.2 L11,10.2 Z M37.8,0 C37,0.8 36.2,1.6 35.4,2.6 C43.8,11.2 43.6,25.2 35.4,33.6 C36.2,34.4 37,35.2 37.8,36.2 C47.4,26.4 47.4,9.8 37.8,0 L37.8,0 Z M32.8,5.2 C32,6 31.2,6.8 30.4,7.8 C33,10.6 34.4,14.2 34.4,18.2 C34.4,22.2 33,25.6 30.4,28.6 C31.2,29.4 32,30.4 32.8,31.2 C40,23.6 39.4,11.6 32.8,5.2 L32.8,5.2 Z M27.8,10.2 C27,11 26.2,11.8 25.4,12.8 C28.2,16.8 28.2,19 25.4,23 C26.2,23.8 27,24.8 27.8,25.6 C31.8,21.8 31.8,14.2 27.8,10.2 L27.8,10.2 Z" id="path-1"></path>
    </defs>
    <g id="Page-1" stroke="none" stroke-width="1" fill="none" fill-rule="evenodd" sketch:type="MSPage">
        <g id="Group-41" sketch:type="MSLayerGroup">
            <mask id="mask-2" sketch:name="Clip 40" fill="white">
                <use xlink:href="#path-1"></use>
            </mask>
            <g id="Clip-40"></g>
            <path d="M-9.2,-10 L55,-10 L55,46.2 L-9.2,46.2 L-9.2,-10 Z" id="Fill-39" fill="#9B9B9B" sketch:type="MSShapeGroup" mask="url(#mask-2)"></path>
        </g>
    </g>
</svg>